<svg width="46" height="46" viewBox="0 0 46 46" fill="none" xmlns="http://www.w3.org/2000/svg">
<mask id="mask0_880_126" style="mask-type:alpha" maskUnits="userSpaceOnUse" x="2" y="1" width="42" height="46">
<path d="M10.5416 24.9185V42.1685H35.4582V24.9185L22.9999 12.4603L10.5416 24.9185Z" fill="white" stroke="white" stroke-width="9.13043" stroke-linejoin="round"/>
<path d="M3.43676 20.6887C3.2537 20.8655 3.10769 21.077 3.00724 21.3109C2.90679 21.5447 2.85391 21.7962 2.8517 22.0507C2.84949 22.3052 2.89799 22.5576 2.99436 22.7931C3.09073 23.0287 3.23305 23.2427 3.41301 23.4226C3.59297 23.6026 3.80697 23.7449 4.04252 23.8413C4.27807 23.9377 4.53045 23.9862 4.78494 23.9839C5.03944 23.9817 5.29094 23.9289 5.52478 23.8284C5.75862 23.728 5.97011 23.5819 6.14692 23.3989L3.43676 20.6887ZM23.0001 3.83554L24.3552 2.48046C23.9958 2.12114 23.5083 1.91929 23.0001 1.91929C22.4919 1.91929 22.0045 2.12114 21.645 2.48046L23.0001 3.83554ZM39.8533 23.3989C40.0301 23.5819 40.2416 23.728 40.4754 23.8284C40.7093 23.9289 40.9608 23.9817 41.2153 23.9839C41.4698 23.9862 41.7222 23.9377 41.9577 23.8413C42.1933 23.7449 42.4073 23.6026 42.5872 23.4226C42.7672 23.2427 42.9095 23.0287 43.0059 22.7931C43.1022 22.5576 43.1507 22.3052 43.1485 22.0507C43.1463 21.7962 43.0934 21.5447 42.993 21.3109C42.8925 21.077 42.7465 20.8655 42.5635 20.6887L39.8533 23.3989ZM6.14692 23.3989L24.3552 5.19062L21.645 2.48046L3.43676 20.6887L6.14692 23.3989ZM21.645 5.19062L39.8533 23.3989L42.5635 20.6887L24.3552 2.48046L21.645 5.19062Z" fill="white"/>
<path d="M18.2079 29.7107H27.7912M22.9996 24.919V34.5023" stroke="black" stroke-width="9.13043" stroke-linecap="round" stroke-linejoin="round"/>
</mask>
<g mask="url(#mask0_880_126)">
<path d="M0 -0.000246H45.9998V45.9996H0V-0.000246Z" fill="#55A8C0"/>
</g>
</svg>
