<svg width="62" height="62" viewBox="0 0 62 62" fill="none" xmlns="http://www.w3.org/2000/svg">
    <path fill-rule="evenodd" clip-rule="evenodd"
        d="M34.1 49.6C35.7443 49.6 37.3213 50.2532 38.4841 51.4159C39.6468 52.5787 40.3 54.1557 40.3 55.8C40.3 57.4443 39.6468 59.0213 38.4841 60.1841C37.3213 61.3468 35.7443 62 34.1 62C32.4557 62 30.8787 61.3468 29.7159 60.1841C28.5532 59.0213 27.9 57.4443 27.9 55.8C27.9 54.1557 28.5532 52.5787 29.7159 51.4159C30.8787 50.2532 32.4557 49.6 34.1 49.6ZM14.6971 40.3C16.7525 40.3 18.7238 41.1165 20.1772 42.5699C21.6306 44.0233 22.4471 45.9946 22.4471 48.05C22.4471 50.1054 21.6306 52.0767 20.1772 53.5301C18.7238 54.9835 16.7525 55.8 14.6971 55.8C12.6417 55.8 10.6704 54.9835 9.21702 53.5301C7.76362 52.0767 6.9471 50.1054 6.9471 48.05C6.9471 45.9946 7.76362 44.0233 9.21702 42.5699C10.6704 41.1165 12.6417 40.3 14.6971 40.3ZM50.5889 41.85C52.2332 41.85 53.8102 42.5032 54.973 43.6659C56.1357 44.8287 56.7889 46.4057 56.7889 48.05C56.7889 49.6943 56.1357 51.2713 54.973 52.4341C53.8102 53.5968 52.2332 54.25 50.5889 54.25C48.9446 54.25 47.3676 53.5968 46.2048 52.4341C45.0421 51.2713 44.3889 49.6943 44.3889 48.05C44.3889 46.4057 45.0421 44.8287 46.2048 43.6659C47.3676 42.5032 48.9446 41.85 50.5889 41.85ZM57.35 28.8889C58.5833 28.8889 59.766 29.3788 60.638 30.2509C61.5101 31.1229 62 32.3056 62 33.5389C62 34.7722 61.5101 35.9549 60.638 36.8269C59.766 37.699 58.5833 38.1889 57.35 38.1889C56.1167 38.1889 54.934 37.699 54.062 36.8269C53.1899 35.9549 52.7 34.7722 52.7 33.5389C52.7 32.3056 53.1899 31.1229 54.062 30.2509C54.934 29.3788 56.1167 28.8889 57.35 28.8889ZM7.75 18.6C9.80543 18.6 11.7767 19.4165 13.2301 20.8699C14.6835 22.3233 15.5 24.2946 15.5 26.35C15.5 28.4054 14.6835 30.3767 13.2301 31.8301C11.7767 33.2835 9.80543 34.1 7.75 34.1C5.69457 34.1 3.72333 33.2835 2.26992 31.8301C0.816515 30.3767 0 28.4054 0 26.35C0 24.2946 0.816515 22.3233 2.26992 20.8699C3.72333 19.4165 5.69457 18.6 7.75 18.6ZM55.1366 16.1417C55.9588 16.1417 56.7473 16.4683 57.3286 17.0497C57.91 17.631 58.2366 18.4195 58.2366 19.2417C58.2366 20.0639 57.91 20.8524 57.3286 21.4337C56.7473 22.0151 55.9588 22.3417 55.1366 22.3417C54.3144 22.3417 53.5259 22.0151 52.9446 21.4337C52.3632 20.8524 52.0366 20.0639 52.0366 19.2417C52.0366 18.4195 52.3632 17.631 52.9446 17.0497C53.5259 16.4683 54.3144 16.1417 55.1366 16.1417ZM24.8 0C27.2665 0 29.632 0.979819 31.3761 2.72391C33.1202 4.468 34.1 6.83349 34.1 9.3C34.1 11.7665 33.1202 14.132 31.3761 15.8761C29.632 17.6202 27.2665 18.6 24.8 18.6C22.3335 18.6 19.968 17.6202 18.2239 15.8761C16.4798 14.132 15.5 11.7665 15.5 9.3C15.5 6.83349 16.4798 4.468 18.2239 2.72391C19.968 0.979819 22.3335 0 24.8 0V0ZM48.05 9.3C48.4611 9.3 48.8553 9.4633 49.146 9.75398C49.4367 10.0447 49.6 10.4389 49.6 10.85C49.6 11.2611 49.4367 11.6553 49.146 11.946C48.8553 12.2367 48.4611 12.4 48.05 12.4C47.6389 12.4 47.2447 12.2367 46.954 11.946C46.6633 11.6553 46.5 11.2611 46.5 10.85C46.5 10.4389 46.6633 10.0447 46.954 9.75398C47.2447 9.4633 47.6389 9.3 48.05 9.3Z"
        fill="#55A8C0" />
</svg>
