<svg width="50" height="50" viewBox="0 0 50 50" fill="none" xmlns="http://www.w3.org/2000/svg">
<circle cx="25" cy="25" r="25" fill="#55A8C0"/>
<path fill-rule="evenodd" clip-rule="evenodd" d="M15.0736 24.9998C15.0736 22.3672 16.1195 19.8423 17.981 17.9808C19.8426 16.1192 22.3674 15.0734 25.0001 15.0734C27.6327 15.0734 30.1576 16.1192 32.0191 17.9808C33.8807 19.8423 34.9265 22.3672 34.9265 24.9998C34.9265 27.6325 33.8807 30.1573 32.0191 32.0189C30.1576 33.8805 27.6327 34.9263 25.0001 34.9263C22.3674 34.9263 19.8426 33.8805 17.981 32.0189C16.1195 30.1573 15.0736 27.6325 15.0736 24.9998V24.9998ZM24.4336 29.2484L30.1486 22.104L29.1162 21.2781L24.243 27.3676L20.7913 24.4916L19.9442 25.5081L24.4336 29.2497V29.2484Z" fill="white"/>
</svg>
