<svg width="17" height="17" viewBox="0 0 17 17" fill="none" xmlns="http://www.w3.org/2000/svg">
<path fill-rule="evenodd" clip-rule="evenodd" d="M0 8.49998C0 6.24564 0.895531 4.08364 2.48959 2.48959C4.08364 0.895531 6.24564 0 8.49998 0C10.7543 0 12.9163 0.895531 14.5104 2.48959C16.1044 4.08364 17 6.24564 17 8.49998C17 10.7543 16.1044 12.9163 14.5104 14.5104C12.9163 16.1044 10.7543 17 8.49998 17C6.24564 17 4.08364 16.1044 2.48959 14.5104C0.895531 12.9163 0 10.7543 0 8.49998H0ZM8.01491 12.138L12.9086 6.02025L12.0246 5.31305L7.85171 10.5275L4.89599 8.06478L4.17066 8.93518L8.01491 12.1391V12.138Z" fill="#25E781"/>
</svg>
