<svg width="28" height="28" viewBox="0 0 28 28" fill="none" xmlns="http://www.w3.org/2000/svg">
<path d="M13.8907 17.0625C14.7029 17.0625 15.4818 16.7399 16.0562 16.1656C16.6305 15.5912 16.9532 14.8123 16.9532 14C16.9532 13.9104 16.9491 13.8215 16.9414 13.7337L13.6243 17.0508C13.7121 17.0584 13.8007 17.0625 13.8907 17.0625ZM24.0275 4.52707L22.8594 3.36004C22.8184 3.31905 22.7628 3.29602 22.7048 3.29602C22.6468 3.29602 22.5912 3.31905 22.5502 3.36004L19.5609 6.35008C17.9119 5.50734 16.0583 5.08598 14 5.08598C8.74457 5.08598 4.82347 7.82309 2.23675 13.2973C2.13278 13.5175 2.07886 13.7579 2.07886 14.0014C2.07886 14.2449 2.13278 14.4853 2.23675 14.7055C3.27035 16.8826 4.51494 18.6276 5.97054 19.9405L3.07785 22.8321C3.03686 22.8731 3.01383 22.9287 3.01383 22.9867C3.01383 23.0447 3.03686 23.1003 3.07785 23.1413L4.24515 24.3086C4.28617 24.3496 4.34179 24.3727 4.39978 24.3727C4.45777 24.3727 4.51339 24.3496 4.55441 24.3086L24.0275 4.8366C24.0479 4.81629 24.064 4.79216 24.075 4.76561C24.086 4.73905 24.0917 4.71058 24.0917 4.68184C24.0917 4.65309 24.086 4.62462 24.075 4.59807C24.064 4.57151 24.0479 4.54739 24.0275 4.52707ZM9.07816 14C9.07808 13.1688 9.29331 12.3517 9.70288 11.6284C10.1124 10.9051 10.7024 10.3001 11.4152 9.87258C12.128 9.44501 12.9395 9.20937 13.7705 9.1886C14.6014 9.16784 15.4236 9.36267 16.1569 9.7541L14.8275 11.0836C14.2913 10.9119 13.7182 10.8912 13.1711 11.0238C12.6239 11.1564 12.1239 11.4371 11.7258 11.8352C11.3277 12.2333 11.047 12.7333 10.9144 13.2805C10.7818 13.8276 10.8025 14.4007 10.9742 14.9368L9.64472 16.2663C9.27165 15.5692 9.077 14.7906 9.07816 14Z" fill="#D3D3D3"/>
<path d="M25.7633 13.2946C24.8008 11.2675 23.6552 9.61459 22.3265 8.33582L18.3851 12.2774C18.7174 13.1459 18.791 14.092 18.5972 15.0014C18.4033 15.9108 17.9503 16.7447 17.2928 17.4022C16.6353 18.0597 15.8014 18.5127 14.892 18.7066C13.9826 18.9004 13.0365 18.8268 12.168 18.4946L8.82495 21.8376C10.3759 22.5553 12.1009 22.9141 14 22.9141C19.2555 22.9141 23.1766 20.177 25.7633 14.7028C25.8673 14.4826 25.9212 14.2422 25.9212 13.9987C25.9212 13.7552 25.8673 13.5148 25.7633 13.2946Z" fill="#D3D3D3"/>
</svg>
