<svg width="56" height="16" viewBox="0 0 56 16" fill="none" xmlns="http://www.w3.org/2000/svg">
<path fill-rule="evenodd" clip-rule="evenodd" d="M6.85713 14.8571V7.99998H0V6.85713H6.85713V0H7.99998V6.85713H14.8571V7.99998H7.99998V14.8571H6.85713ZM23.7907 13.5759L27.0097 7.99998H20.5714V6.85713H27.0105L23.7907 1.28013L24.7804 0.708704L27.9997 6.2857L31.2192 0.708704L32.2089 1.28013L28.9891 6.85713H35.4285V7.99998H28.9899L32.2089 13.5759L31.2192 14.1473L27.9999 8.57141L24.7804 14.1473L23.7907 13.5759ZM45.7142 16V10.2857H41.1428V9.14284H45.7142V5.71427H41.1428V4.57142H45.7142V1.14285H46.857V4.57142H50.2856V1.14285H51.4285V4.57142H55.9999V5.71427H51.4285V9.14284H55.9999V10.2857H51.4285V16H50.2856V10.2857H46.857V16H45.7142ZM50.2856 9.14284V5.71427H46.857V9.14284H50.2856Z" fill="#464646"/>
</svg>
