<svg width="194" height="188" viewBox="0 0 194 188" fill="none" xmlns="http://www.w3.org/2000/svg">
<circle cx="105" cy="99" r="68" fill="#55A8C0"/>
<path d="M122.5 87.3335C122.5 82.6922 120.656 78.241 117.374 74.9591C114.092 71.6772 109.641 69.8335 105 69.8335C100.359 69.8335 95.9075 71.6772 92.6256 74.9591C89.3437 78.241 87.5 82.6922 87.5 87.3335C87.5 107.75 78.75 113.583 78.75 113.583H131.25C131.25 113.583 122.5 107.75 122.5 87.3335Z" fill="white"/>
<path d="M110.046 125.25C109.533 126.134 108.797 126.868 107.911 127.378C107.026 127.888 106.022 128.156 105 128.156C103.978 128.156 102.974 127.888 102.088 127.378C101.203 126.868 100.467 126.134 99.9541 125.25" stroke="white" stroke-width="3" stroke-linecap="round" stroke-linejoin="round"/>
<circle cx="38" cy="50" r="4" fill="#55A8C0" fill-opacity="0.75"/>
<circle cx="82.5" cy="8.5" r="8.5" fill="#55A8C0" fill-opacity="0.75"/>
<circle cx="177.5" cy="158.5" r="8.5" fill="#55A8C0" fill-opacity="0.75"/>
<circle cx="14" cy="105" r="14" fill="#55A8C0" fill-opacity="0.75"/>
<circle cx="165.5" cy="21.5" r="16.5" fill="#55A8C0" fill-opacity="0.75"/>
<circle cx="190" cy="95" r="4" fill="#55A8C0" fill-opacity="0.75"/>
<circle cx="42" cy="155" r="4" fill="#55A8C0" fill-opacity="0.75"/>
<circle cx="115" cy="184" r="4" fill="#1A8FE3" fill-opacity="0.5"/>
</svg>
