<svg width="70" height="68" viewBox="0 0 70 68" fill="none" xmlns="http://www.w3.org/2000/svg">
<circle cx="37.8867" cy="35.7216" r="24.5361" fill="#55A8C0"/>
<path fill-rule="evenodd" clip-rule="evenodd" d="M28.1443 57.8841C28.1443 55.2034 29.1707 52.6324 30.9977 50.7369C32.8248 48.8413 35.3027 47.7764 37.8866 47.7764C40.4704 47.7764 42.9483 48.8413 44.7754 50.7369C46.6024 52.6324 47.6288 55.2034 47.6288 57.8841C47.6288 60.5649 46.6024 63.1358 44.7754 65.0314C42.9483 66.927 40.4704 67.9919 37.8866 67.9919C35.3027 67.9919 32.8248 66.927 30.9977 65.0314C29.1707 63.1358 28.1443 60.5649 28.1443 57.8841V57.8841ZM37.3306 62.2103L42.9395 54.9354L41.9263 54.0944L37.1435 60.2952L33.7558 57.3666L32.9245 58.4017L37.3306 62.2116V62.2103Z" fill="white"/>
<circle cx="13.7114" cy="18.041" r="1.4433" fill="#55A8C0" fill-opacity="0.75"/>
<circle cx="29.7679" cy="3.06701" r="3.06701" fill="#55A8C0" fill-opacity="0.75"/>
<circle cx="64.0465" cy="57.191" r="3.06701" fill="#55A8C0" fill-opacity="0.75"/>
<circle cx="5.05155" cy="37.8865" r="5.05155" fill="#55A8C0" fill-opacity="0.75"/>
<circle cx="59.7165" cy="7.75732" r="5.95361" fill="#55A8C0" fill-opacity="0.75"/>
<circle cx="68.5566" cy="34.2783" r="1.4433" fill="#55A8C0" fill-opacity="0.75"/>
<circle cx="15.1547" cy="55.9277" r="1.4433" fill="#55A8C0" fill-opacity="0.75"/>
<circle cx="41.4948" cy="66.3915" r="1.4433" fill="#1A8FE3" fill-opacity="0.5"/>
</svg>
