<svg width="26" height="26" viewBox="0 0 26 26" fill="none" xmlns="http://www.w3.org/2000/svg">
<path d="M23.6225 10.8273H22.7499V10.7825H12.9999V15.0955H19.1223C18.2291 17.6063 15.829 19.4086 12.9999 19.4086C9.41023 19.4086 6.49985 16.5118 6.49985 12.939C6.49985 9.36623 9.41023 6.46949 12.9999 6.46949C14.6568 6.46949 16.1643 7.09165 17.3121 8.10791L20.3763 5.05806C18.4414 3.2633 15.8534 2.15647 12.9999 2.15647C7.01714 2.15647 2.16651 6.98436 2.16651 12.939C2.16651 18.8937 7.01714 23.7216 12.9999 23.7216C18.9826 23.7216 23.8332 18.8937 23.8332 12.939C23.8332 12.2161 23.7585 11.5103 23.6225 10.8273Z" fill="#FFC107"/>
<path d="M3.41559 7.92029L6.97488 10.5183C7.93797 8.1451 10.2704 6.46949 12.9998 6.46949C14.6568 6.46949 16.1643 7.09165 17.3121 8.1079L20.3763 5.05806C18.4414 3.2633 15.8534 2.15647 12.9998 2.15647C8.83876 2.15647 5.23017 4.49467 3.41559 7.92029Z" fill="#FF3D00"/>
<path d="M12.9998 23.7217C15.7981 23.7217 18.3407 22.6559 20.2631 20.9226L16.9101 18.0986C15.7859 18.9496 14.4122 19.4098 12.9998 19.4087C10.1821 19.4087 7.78955 17.6204 6.88821 15.1248L3.35546 17.8339C5.14838 21.3258 8.78946 23.7217 12.9998 23.7217Z" fill="#4CAF50"/>
<path d="M23.6227 10.8273H22.7501V10.7826H13.0001V15.0956H19.1225C18.6953 16.2906 17.9256 17.3347 16.9087 18.0991L16.9104 18.098L20.2633 20.922C20.026 21.1366 23.8334 18.3304 23.8334 12.9391C23.8334 12.2161 23.7587 11.5104 23.6227 10.8273Z" fill="#1976D2"/>
</svg>
