<svg width="37" height="37" viewBox="0 0 37 37" fill="none" xmlns="http://www.w3.org/2000/svg">
    <path
        d="M17.5917 15.6383C17.253 15.2997 17.253 14.7506 17.5917 14.4119C17.9304 14.0733 18.4794 14.0733 18.8181 14.4119L21.6798 17.2736L24.5413 14.4119C24.8799 14.0733 25.429 14.0733 25.7677 14.4119C26.1063 14.7505 26.1063 15.2997 25.7677 15.6383L22.906 18.4999L25.7677 21.3615C26.1063 21.7001 26.1063 22.2492 25.7677 22.5878C25.429 22.9265 24.8799 22.9265 24.5413 22.5878L21.6798 19.7263L18.8181 22.5878C18.4794 22.9265 17.9304 22.9265 17.5918 22.5878C17.253 22.2492 17.253 21.7001 17.5918 21.3614L20.4533 18.5L17.5917 15.6383Z"
        fill="#464646" />
    <path fill-rule="evenodd" clip-rule="evenodd"
        d="M14.0153 9.68769L5.20314 18.4999L14.0153 27.3121C14.6659 27.9626 15.5482 28.328 16.4681 28.328H28.3282C30.244 28.328 31.797 26.775 31.797 24.8593V12.1405C31.797 10.2247 30.244 8.67174 28.3282 8.67174H16.4681C15.5482 8.67174 14.6659 9.03723 14.0153 9.68769ZM28.3282 26.8249H16.4681C15.9468 26.8249 15.4468 26.6178 15.0782 26.2492L7.32891 18.4999L15.0782 10.7506C15.4468 10.382 15.9468 10.1749 16.4681 10.1749H28.3282C29.4137 10.1749 30.2938 11.0549 30.2938 12.1405V24.8593C30.2938 25.9449 29.4137 26.8249 28.3282 26.8249Z"
        fill="#464646" />
</svg>
