<svg width="289" height="375" viewBox="0 0 289 375" fill="none" xmlns="http://www.w3.org/2000/svg">
<path fill-rule="evenodd" clip-rule="evenodd" d="M23.5045 315.668C28.5931 319.902 33.7665 325.617 31.403 331.801C28.938 338.249 21.2366 340.226 14.363 339.583C7.99838 338.988 2.35778 335.095 0.676046 328.928C-1.13856 322.273 0.653115 314.644 6.61746 311.179C12.1857 307.945 18.5544 311.55 23.5045 315.668Z" fill="#1A8FE3" fill-opacity="0.5"/>
<path fill-rule="evenodd" clip-rule="evenodd" d="M284.756 321.929C286.961 323.764 289.203 326.241 288.179 328.921C287.111 331.716 283.773 332.573 280.794 332.294C278.035 332.036 275.591 330.349 274.862 327.676C274.076 324.792 274.852 321.485 277.437 319.984C279.85 318.582 282.61 320.144 284.756 321.929Z" fill="#1A8FE3"/>
<path fill-rule="evenodd" clip-rule="evenodd" d="M145.885 369.92C146.961 370.815 148.055 372.023 147.555 373.33C147.034 374.694 145.406 375.112 143.953 374.976C142.607 374.85 141.414 374.027 141.059 372.723C140.675 371.316 141.054 369.703 142.315 368.971C143.492 368.287 144.839 369.049 145.885 369.92Z" fill="#1A8FE3" fill-opacity="0.5"/>
<path fill-rule="evenodd" clip-rule="evenodd" d="M250.348 77.1082C258.245 77.058 267.358 78.2945 269.956 85.7523C272.666 93.5301 267.16 101.255 260.395 105.953C254.132 110.304 245.993 111.088 239.717 106.755C232.945 102.08 228.714 93.7426 231.491 85.9967C234.084 78.7652 242.665 77.157 250.348 77.1082Z" fill="#1A8FE3"/>
<path fill-rule="evenodd" clip-rule="evenodd" d="M17.5429 105.334C22.1735 103.358 27.8365 101.838 31.2023 105.583C34.7124 109.488 33.3797 115.386 30.5608 119.816C27.9506 123.918 23.3588 126.386 18.601 125.385C13.4673 124.306 8.92419 120.447 8.64774 115.208C8.38964 110.317 13.0383 107.257 17.5429 105.334Z" fill="#1A8FE3" fill-opacity="0.3"/>
<path fill-rule="evenodd" clip-rule="evenodd" d="M141.135 2.04666C145.766 0.0704568 151.429 -1.44916 154.795 2.29511C158.305 6.20007 156.972 12.0988 154.153 16.5286C151.543 20.6305 146.951 23.0983 142.194 22.0978C137.06 21.0183 132.517 17.1594 132.24 11.9207C131.982 7.0299 136.631 3.96908 141.135 2.04666Z" fill="#1A8FE3" fill-opacity="0.5"/>
</svg>
