<svg width="32" height="26" viewBox="0 0 32 26" fill="none" xmlns="http://www.w3.org/2000/svg">
    <path
        d="M11.2 12.8C14.735 12.8 17.6 9.935 17.6 6.4C17.6 2.865 14.735 0 11.2 0C7.665 0 4.8 2.865 4.8 6.4C4.8 9.935 7.665 12.8 11.2 12.8ZM8.915 15.2C3.99 15.2 0 19.19 0 24.115C0 24.935 0.665 25.6 1.485 25.6H20.915C21.005 25.6 21.09 25.59 21.18 25.575C17.365 22.82 16.19 18.525 16.025 15.565C15.22 15.325 14.37 15.2 13.49 15.2H8.915ZM24.355 11.285L18.355 13.685C17.9 13.87 17.6 14.31 17.6 14.8C17.6 17.965 18.895 23.24 24.34 25.51C24.635 25.635 24.97 25.635 25.265 25.51C30.705 23.24 32 17.965 32 14.8C32 14.31 31.7 13.87 31.245 13.685L25.245 11.285C24.96 11.17 24.64 11.17 24.355 11.285ZM29.57 15.6C29.375 18.135 28.21 21.435 24.8 23.085V13.69L29.57 15.6Z"
        fill="#55A8C0" />
</svg>
