<svg width="13" height="13" viewBox="0 0 13 13" fill="none" xmlns="http://www.w3.org/2000/svg">
<path fill-rule="evenodd" clip-rule="evenodd" d="M6.5 13C10.0899 13 13 10.0899 13 6.5C13 2.91015 10.0899 0 6.5 0C2.91015 0 0 2.91015 0 6.5C0 10.0899 2.91015 13 6.5 13ZM5.55664 2.8807H7.44334L7.2708 8.21071H5.72918L5.55664 2.8807ZM7.4771 9.69607C7.4696 10.2362 7.01574 10.6713 6.50187 10.6713C5.96174 10.6713 5.51913 10.2362 5.52664 9.69607C5.51913 9.16344 5.96174 8.73209 6.50187 8.73209C7.01574 8.73209 7.4696 9.16344 7.4771 9.69607Z" fill="#EE0004"/>
</svg>
