<svg width="35" height="29" viewBox="0 0 35 29" fill="none" xmlns="http://www.w3.org/2000/svg">
<path d="M17.4029 11.6C18.9412 11.6 20.4164 10.9889 21.5041 9.90122C22.5919 8.81351 23.2029 7.33825 23.2029 5.8C23.2029 4.26174 22.5919 2.78649 21.5041 1.69878C20.4164 0.61107 18.9412 0 17.4029 0C15.8647 0 14.3894 0.61107 13.3017 1.69878C12.214 2.78649 11.6029 4.26174 11.6029 5.8C11.6029 7.33825 12.214 8.81351 13.3017 9.90122C14.3894 10.9889 15.8647 11.6 17.4029 11.6ZM9.6696 9.66667C9.6696 10.6922 9.26222 11.6757 8.53708 12.4008C7.81193 13.126 6.82843 13.5333 5.80293 13.5333C4.77743 13.5333 3.79392 13.126 3.06878 12.4008C2.34364 11.6757 1.93626 10.6922 1.93626 9.66667C1.93626 8.64116 2.34364 7.65766 3.06878 6.93252C3.79392 6.20738 4.77743 5.8 5.80293 5.8C6.82843 5.8 7.81193 6.20738 8.53708 6.93252C9.26222 7.65766 9.6696 8.64116 9.6696 9.66667ZM0.950264 23.8303C0.620217 23.6427 0.373057 23.3375 0.25813 22.9757C-0.0825121 21.8724 -0.0860842 20.6926 0.247871 19.5872C0.581827 18.4819 1.23811 17.5014 2.13268 16.7713C3.02724 16.0412 4.11938 15.5947 5.26922 15.489C6.41906 15.3834 7.57428 15.6233 8.58693 16.1781C6.50595 18.2231 5.20347 20.93 4.90393 23.8322C4.85946 24.2614 4.87686 24.6867 4.95226 25.0966C3.54124 24.9746 2.17463 24.5422 0.950264 23.8303ZM29.8536 25.0947C31.2645 24.9732 32.6311 24.5415 33.8556 23.8303C34.1849 23.6423 34.4313 23.3372 34.5458 22.9757C34.887 21.8723 34.891 20.6922 34.5572 19.5865C34.2235 18.4808 33.5673 17.4999 32.6726 16.7695C31.7779 16.0391 30.6855 15.5924 29.5354 15.4867C28.3853 15.381 27.2298 15.6211 26.217 16.1762C28.2998 18.2211 29.6037 20.9288 29.9039 23.8322C29.9469 24.2539 29.93 24.6796 29.8536 25.0966V25.0947ZM32.8696 9.66667C32.8696 10.6922 32.4622 11.6757 31.7371 12.4008C31.0119 13.126 30.0284 13.5333 29.0029 13.5333C27.9774 13.5333 26.9939 13.126 26.2688 12.4008C25.5436 11.6757 25.1363 10.6922 25.1363 9.66667C25.1363 8.64116 25.5436 7.65766 26.2688 6.93252C26.9939 6.20738 27.9774 5.8 29.0029 5.8C30.0284 5.8 31.0119 6.20738 31.7371 6.93252C32.4622 7.65766 32.8696 8.64116 32.8696 9.66667ZM8.324 25.5007C8.13333 25.3299 7.9855 25.1167 7.89247 24.8782C7.79944 24.6398 7.76381 24.3828 7.78846 24.128C8.03437 21.749 9.15348 19.5456 10.9295 17.9437C12.7055 16.3419 15.0122 15.4553 17.4039 15.4553C19.7956 15.4553 22.1023 16.3419 23.8783 17.9437C25.6543 19.5456 26.7734 21.749 27.0193 24.128C27.0441 24.3828 27.0086 24.6398 26.9155 24.8783C26.8225 25.1168 26.6746 25.33 26.4838 25.5007C23.9979 27.7568 20.7599 29.0045 17.4029 29C14.0466 29.0042 10.8093 27.7565 8.324 25.5007Z" fill="#55A8C0"/>
</svg>
