<svg width="36" height="36" viewBox="0 0 36 36" fill="none" xmlns="http://www.w3.org/2000/svg">
<path d="M17.1161 15.2156C16.7866 14.8861 16.7866 14.3519 17.1161 14.0224C17.4456 13.6929 17.9799 13.6929 18.3093 14.0224L21.0936 16.8067L23.8778 14.0224C24.2073 13.6929 24.7415 13.6929 25.0711 14.0224C25.4005 14.3518 25.4005 14.8861 25.0711 15.2156L22.2867 17.9998L25.0711 20.7841C25.4005 21.1135 25.4005 21.6478 25.0711 21.9773C24.7415 22.3068 24.2073 22.3068 23.8778 21.9773L21.0936 19.1931L18.3093 21.9773C17.9799 22.3068 17.4456 22.3068 17.1162 21.9773C16.7866 21.6478 16.7866 21.1135 17.1162 20.784L19.9004 17.9999L17.1161 15.2156Z" fill="black"/>
<path fill-rule="evenodd" clip-rule="evenodd" d="M13.6364 9.42588L5.06248 17.9998L13.6364 26.5738C14.2694 27.2067 15.1278 27.5623 16.0229 27.5623H27.5623C29.4263 27.5623 30.9373 26.0513 30.9373 24.1873V11.8124C30.9373 9.94841 29.4263 8.43739 27.5623 8.43739H16.0229C15.1278 8.43739 14.2694 8.793 13.6364 9.42588ZM27.5623 26.0998H16.0229C15.5156 26.0998 15.0292 25.8983 14.6705 25.5396L7.13079 17.9998L14.6705 10.46C15.0292 10.1014 15.5156 9.89987 16.0229 9.89987H27.5623C28.6185 9.89987 29.4748 10.7561 29.4748 11.8124V24.1873C29.4748 25.2436 28.6185 26.0998 27.5623 26.0998Z" fill="black"/>
</svg>
